<svg width="71" height="71" viewBox="0 0 71 71" fill="none" xmlns="http://www.w3.org/2000/svg">
<g clip-path="url(#clip0_8_875)">
<path d="M70.9638 59.1667C70.9638 65.675 65.6586 71 59.1744 71H12.0169C5.53276 71 0.227539 65.675 0.227539 59.1667V11.8333C0.227539 5.325 5.53276 0 12.0169 0H59.1744C65.6586 0 70.9638 5.325 70.9638 11.8333V59.1667Z" fill="#563D7C"/>
<path d="M19.449 15.4297H39.5025C43.2011 15.4297 46.1716 16.2766 48.4023 17.982C50.633 19.6874 51.7542 22.2513 51.7542 25.6968C51.7542 27.7851 51.2456 29.5717 50.2285 31.0566C49.2114 32.5416 47.755 33.7017 45.8595 34.5138V34.6299C48.4023 35.1751 50.3325 36.3816 51.6386 38.2495C52.9447 40.1289 53.6035 42.4723 53.6035 45.3031C53.6035 46.9272 53.3145 48.447 52.7366 49.8508C52.1587 51.2661 51.2572 52.4843 50.0204 53.5052C48.7837 54.5261 47.2118 55.3382 45.2816 55.9415C43.3514 56.5447 41.0628 56.8464 38.4044 56.8464H19.449V15.4297ZM26.6729 32.7736H38.4622C40.196 32.7736 41.6407 32.2864 42.7966 31.2887C43.9524 30.291 44.5303 28.8756 44.5303 27.0194C44.5303 24.9312 44.0102 23.4578 42.9699 22.6109C41.9297 21.764 40.4271 21.3348 38.4622 21.3348H26.6729V32.7736ZM26.6729 50.9297H39.4447C41.6407 50.9297 43.3514 50.3612 44.5534 49.2127C45.767 48.0758 46.3796 46.4516 46.3796 44.3633C46.3796 42.3099 45.7786 40.7437 44.5534 39.63C43.3282 38.5163 41.6407 37.9826 39.4447 37.9826H26.6729V50.9297Z" fill="#F3F2F0"/>
</g>
<defs>
<clipPath id="clip0_8_875">
<rect width="70.7363" height="71" fill="white" transform="translate(0.227539)"/>
</clipPath>
</defs>
</svg>
