<svg width="76" height="82" viewBox="0 0 76 82" fill="none" xmlns="http://www.w3.org/2000/svg">
<g clip-path="url(#clip0_8_826)">
<path fill-rule="evenodd" clip-rule="evenodd" d="M61.0923 73.1091L67.0304 0.946543L67.1081 0H66.2332H1.0547H0.17981L0.257513 0.946543L6.18917 73.1208L6.23861 73.7228L6.77295 73.8833L33.3909 81.9H33.818L60.5084 73.8716L61.0427 73.7111L61.0923 73.1091Z" fill="#1572B6"/>
<path fill-rule="evenodd" clip-rule="evenodd" d="M61.9498 5.11877H33.6438V76.6405L56.6334 69.7254L61.9498 5.11877Z" fill="#35A8DB"/>
<path fill-rule="evenodd" clip-rule="evenodd" d="M33.6125 24.3332L13.6478 33.3538L14.3101 42.2846L33.6125 33.3309L54.1452 23.8072L54.9964 14.6713L33.6125 24.3332Z" fill="#E9E9E8"/>
<path fill-rule="evenodd" clip-rule="evenodd" d="M33.6123 14.6715H33.7602H33.9288H34.0969H34.2655H34.4341H34.6026H34.7712H34.9398H35.1084H35.277H35.4455H35.6141H35.7827H35.9513H36.1199H36.2884H36.4565H36.6251H36.7937H36.9623H37.1308H37.2994H37.468H37.6366H37.8051H37.9737H38.1423H38.3104H38.479H38.6476H38.8161H38.9847H39.1533H39.3219H39.4904H39.659H39.8276H39.9962H40.1648H40.3333H40.5019H40.6705H40.8386H41.0072H41.1757H41.3443H41.5129H41.6815H41.85H42.0186H42.1872H42.3558H42.5244H42.6929H42.8615H43.0296H43.1982H43.3668H43.5353H43.7039H43.8725H44.0411H44.2097H44.3782H44.5468H44.7154H44.884H45.0521H45.2206H45.3892H45.5578H45.7264H45.895H46.0635H46.2321H46.4007H46.5693H46.7378H46.9064H47.075H47.2436H47.4117H47.5802H47.7488H47.9174H48.086H48.2546H48.4231H48.5917H48.7603H48.9289H49.0975H49.266H49.4341H49.6027H49.7713H49.9398H50.1084H50.277H50.4456H50.6142H50.7827H50.9513H51.1199H51.2885H51.4571H51.6256H51.7937H51.9623H52.1309H52.2995H52.468H52.6366H52.8052H52.9738H53.1424H53.3109H53.4795H53.6481H53.8167H53.9852H54.1533H54.3219H54.4905H54.6591H54.8276H54.9962L54.8276 16.4798L54.6591 18.288L54.4905 20.0961L54.3219 21.9048L54.1533 23.713L54.145 23.807H53.9852H53.8167H53.6481H53.4795H53.3109H53.1424H52.9738H52.8052H52.6366H52.468H52.2995H52.1309H51.9623H51.7937H51.6256H51.4571H51.2885H51.1199H50.9513H50.7827H50.6142H50.4456H50.277H50.1084H49.9398H49.7713H49.6027H49.4341H49.266H49.0975H48.9289H48.7603H48.5917H48.4231H48.2546H48.086H47.9174H47.7488H47.5802H47.4117H47.2436H47.075H46.9064H46.7378H46.5693H46.4007H46.2321H46.0635H45.895H45.7264H45.5578H45.3892H45.2206H45.0521H44.884H44.7154H44.5468H44.3782H44.2097H44.0411H43.8725H43.7039H43.5353H43.3668H43.1982H43.0296H42.8615H42.6929H42.5244H42.3558H42.1872H42.0186H41.85H41.6815H41.5129H41.3443H41.1757H41.0072H40.8386H40.6705H40.5019H40.3333H40.1648H39.9962H39.8276H39.659H39.4904H39.3219H39.1533H38.9847H38.8161H38.6476H38.479H38.3104H38.1423H37.9737H37.8051H37.6366H37.468H37.2994H37.1308H36.9623H36.7937H36.6251H36.4565H36.2884H36.1199H35.9513H35.7827H35.6141H35.4455H35.277H35.1084H34.9398H34.7761H34.7712H34.6026H34.4341H34.2655H34.0969H33.9288H33.7602H33.6369H33.6123H33.5917H33.4231H33.2545H33.0859H32.9174H32.7488H32.5802H32.4118H32.2432H32.0747H31.9062H31.7376H31.5691H31.4006H31.232H31.0635H30.8949H30.7264H30.5578H30.3893H30.2208H30.0522H29.8837H29.7151H29.5466H29.378H29.2095H29.041H28.8724H28.7039H28.5353H28.3668H28.1982H28.0297H27.8612H27.6926H27.5241H27.3555H27.187H27.0185H26.8499H26.6814H26.5129H26.3443H26.1757H26.0072H25.8387H25.6701H25.5016H25.3331H25.1645H24.996H24.8275H24.6589H24.4903H24.3218H24.1533H23.9848H23.8162H23.6476H23.4791H23.3105H23.142H22.9735H22.805H22.6364H22.4678H22.2993H22.1307H21.9623H21.7937H21.6251H21.4566H21.288H21.1196H20.951H20.7825H20.6139H20.4454H20.2769H20.1083H19.9398H19.7712H19.6026H19.4341H19.2656H19.0971H18.9285H18.76H18.5914H18.4228H18.2544H18.0858H17.9173H17.7487H17.5801H17.4117H17.2431H17.0746H16.906H16.7375H16.569H16.4004H16.2319H16.0633H15.8948H15.7262H15.5577H15.3892H15.2206H15.0521H14.8835H14.715H14.5465H14.3779H14.2094H14.0408H13.8723H13.7038H13.5352H13.3667H13.1981H13.0296H12.8905L12.8611 23.5486L12.6925 22.0689L12.524 20.5895L12.3554 19.1096L12.1869 17.6303L12.0184 16.1509L11.8499 14.6715H12.0184H12.1869H12.3554H12.524H12.6925H12.8611H13.0296H13.1981H13.3667H13.5352H13.7038H13.8723H14.0408H14.2094H14.3779H14.5465H14.715H14.8835H15.0521H15.2206H15.3892H15.5577H15.7262H15.8948H16.0633H16.2319H16.4004H16.569H16.7375H16.906H17.0746H17.2431H17.4117H17.5801H17.7487H17.9173H18.0858H18.2544H18.4228H18.5914H18.76H18.9285H19.0971H19.2656H19.4341H19.6026H19.7712H19.9398H20.1083H20.2769H20.4454H20.6139H20.7825H20.951H21.1196H21.288H21.4566H21.6251H21.7937H21.9623H22.1307H22.2993H22.4678H22.6364H22.805H22.9735H23.142H23.3105H23.4791H23.6476H23.8162H23.9848H24.1533H24.3218H24.4903H24.6589H24.8275H24.996H25.1645H25.3331H25.5016H25.6701H25.8387H26.0072H26.1757H26.3443H26.5129H26.6814H26.8499H27.0185H27.187H27.3555H27.5241H27.6926H27.8612H28.0297H28.1982H28.3668H28.5353H28.7039H28.8724H29.041H29.2095H29.378H29.5466H29.7151H29.8837H30.0522H30.2208H30.3893H30.5578H30.7264H30.8949H31.0635H31.232H31.4006H31.5691H31.7376H31.9062H32.0747H32.2432H32.4118H32.5802H32.7488H32.9174H33.0859H33.2545H33.4231H33.5917H33.6123Z" fill="#E9E9E8"/>
<path fill-rule="evenodd" clip-rule="evenodd" d="M13.6785 33.3551H53.4197L52.6957 42.3875L14.3406 42.2846L13.6785 33.3551Z" fill="#E9E9E8"/>
<path fill-rule="evenodd" clip-rule="evenodd" d="M14.9203 47.316L23.6137 47.3197L24.1809 54.7051L33.6123 57.2426L43.295 54.2945L43.9501 42.2169L52.7211 42.0676L51.1484 61.6853L33.6438 67.229L16.0131 61.5829L14.9203 47.316Z" fill="#E9E9E8"/>
<path fill-rule="evenodd" clip-rule="evenodd" d="M33.644 33.3163L54.1453 23.8072L54.9965 14.6713L33.644 24.3189V33.3163Z" fill="#F3F2F0"/>
<path fill-rule="evenodd" clip-rule="evenodd" d="M33.644 14.6715H33.7605H33.9291H34.0972H34.2658H34.4343H34.6029H34.7715H34.9401H35.1087H35.2772H35.4458H35.6144H35.783H35.9516H36.1201H36.2887H36.4568H36.6254H36.794H36.9625H37.1311H37.2997H37.4683H37.6368H37.8054H37.974H38.1426H38.3107H38.4792H38.6478H38.8164H38.985H39.1536H39.3221H39.4907H39.6593H39.8279H39.9965H40.165H40.3336H40.5022H40.6708H40.8389H41.0074H41.176H41.3446H41.5132H41.6818H41.8503H42.0189H42.1875H42.3561H42.5246H42.6932H42.8618H43.0299H43.1985H43.367H43.5356H43.7042H43.8728H44.0414H44.2099H44.3785H44.5471H44.7157H44.8842H45.0523H45.2209H45.3895H45.5581H45.7267H45.8952H46.0638H46.2324H46.401H46.5695H46.7381H46.9067H47.0753H47.2439H47.4119H47.5805H47.7491H47.9177H48.0863H48.2548H48.4234H48.592H48.7606H48.9292H49.0977H49.2663H49.4344H49.603H49.7716H49.9401H50.1087H50.2773H50.4459H50.6145H50.783H50.9516H51.1202H51.2888H51.4573H51.6259H51.794H51.9626H52.1312H52.2997H52.4683H52.6369H52.8055H52.9741H53.1426H53.3112H53.4798H53.6484H53.8169H53.9855H54.1536H54.3222H54.4908H54.6593H54.8279H54.9965L54.8279 16.4798L54.6593 18.288L54.4908 20.0961L54.3222 21.9048L54.1536 23.713L54.1453 23.807H53.9855H53.8169H53.6484H53.4798H53.3112H53.1426H52.9741H52.8055H52.6369H52.4683H52.2997H52.1312H51.9626H51.794H51.6259H51.4573H51.2888H51.1202H50.9516H50.783H50.6145H50.4459H50.2773H50.1087H49.9401H49.7716H49.603H49.4344H49.2663H49.0977H48.9292H48.7606H48.592H48.4234H48.2548H48.0863H47.9177H47.7491H47.5805H47.4119H47.2439H47.0753H46.9067H46.7381H46.5695H46.401H46.2324H46.0638H45.8952H45.7267H45.5581H45.3895H45.2209H45.0523H44.8842H44.7157H44.5471H44.3785H44.2099H44.0414H43.8728H43.7042H43.5356H43.367H43.1985H43.0299H42.8618H42.6932H42.5246H42.3561H42.1875H42.0189H41.8503H41.6818H41.5132H41.3446H41.176H41.0074H40.8389H40.6708H40.5022H40.3336H40.165H39.9965H39.8279H39.6593H39.4907H39.3221H39.1536H38.985H38.8164H38.6478H38.4792H38.3107H38.1426H37.974H37.8054H37.6368H37.4683H37.2997H37.1311H36.9625H36.794H36.6254H36.4568H36.2887H36.1201H35.9516H35.783H35.6144H35.4458H35.2772H35.1087H34.9401H34.7764H34.7715H34.6029H34.4343H34.2658H34.0972H33.9291H33.7605H33.644V14.6715Z" fill="#F3F2F0"/>
<path fill-rule="evenodd" clip-rule="evenodd" d="M33.6437 33.3551H53.4195L52.6955 42.3875L33.6437 42.3363V33.3551Z" fill="#F3F2F0"/>
<path fill-rule="evenodd" clip-rule="evenodd" d="M33.6437 57.233L43.2949 54.2945L43.9501 42.2169L52.7211 42.0676L51.1483 61.6853L33.6437 67.229V67.2284V57.233Z" fill="#F3F2F0"/>
</g>
<defs>
<clipPath id="clip0_8_826">
<rect width="75.4917" height="81.9" fill="white" transform="translate(0.17981)"/>
</clipPath>
</defs>
</svg>
