<svg width="77" height="84" viewBox="0 0 77 84" fill="none" xmlns="http://www.w3.org/2000/svg">
<path d="M5.75072 0C5.04298 0 4.51571 0.629183 4.57857 1.39798L10.5448 74.4026C10.6076 75.1716 11.2167 75.9697 11.8989 76.1763L37.2164 83.845C37.8984 84.0515 39.0142 84.0515 39.6963 83.8454L65.0909 76.1642C65.7729 75.9578 66.3827 75.1598 66.4454 74.391L72.4215 1.39798C72.4849 0.629183 71.957 0 71.2492 0H5.75072ZM59.7157 16.7433C59.6593 17.4291 59.5619 18.6197 59.499 19.3887L59.3418 21.3041C59.2785 22.0728 59.1884 23.1722 59.1409 23.7469C59.0935 24.3218 59.0486 24.7921 59.0403 24.7921C59.0323 24.7921 58.4466 24.7921 57.739 24.7921H39.7867C39.079 24.7921 38.4941 24.7921 38.4864 24.7921C38.4788 24.7921 37.8933 24.7921 37.1856 24.7921H27.7307C27.023 24.7921 26.4957 25.4213 26.5586 26.1901L27.1101 32.9151C27.1729 33.6837 27.8037 34.3131 28.5113 34.3131H37.1857C37.8935 34.3131 38.4788 34.3131 38.4866 34.3131C38.4944 34.3131 39.0793 34.3131 39.7869 34.3131H54.697C55.4047 34.3131 56.4999 34.3131 57.1306 34.3131C57.7609 34.3131 58.2303 34.8743 58.1731 35.5601C58.1157 36.2459 58.0176 37.4368 57.9549 38.2055L56.1817 59.8864C56.1183 60.6554 56.0383 61.6377 56.0039 62.0695C55.9687 62.501 55.3822 63.0228 54.7002 63.2292L39.7401 67.7544C39.0581 67.9605 38.4916 68.1311 38.4809 68.1337C38.4704 68.1362 37.904 67.9692 37.2217 67.763L22.2457 63.2296C21.5636 63.0232 20.9543 62.2252 20.8915 61.4562L19.9275 49.6527C19.8647 48.8837 20.3925 48.2545 21.1003 48.2545H22.467C23.1748 48.2545 24.3328 48.2545 25.0404 48.2545H27.0785C27.7862 48.2545 28.4164 48.8837 28.4797 49.6527L28.8578 54.2733C28.9206 55.0423 29.5308 55.8359 30.2142 56.0372L37.2192 58.1009C37.9022 58.3022 38.4637 58.467 38.4669 58.467C38.4701 58.467 39.0313 58.3019 39.7145 58.1006L46.7323 56.0319C47.4152 55.8306 48.0259 55.0367 48.0892 54.2681L48.8502 45.0105C48.9135 44.2415 48.3863 43.6123 47.6785 43.6123H39.7869C39.0791 43.6123 38.4943 43.6123 38.4866 43.6123C38.4789 43.6123 37.8935 43.6123 37.1857 43.6123H20.7187C20.011 43.6123 19.3809 42.983 19.318 42.2143L17.4507 19.3889C17.3879 18.6199 17.2904 17.4296 17.234 16.7435C17.1782 16.0577 17.7111 15.4964 18.4188 15.4964H37.1857C37.8935 15.4964 38.4788 15.4964 38.4866 15.4964C38.4944 15.4964 39.0793 15.4964 39.7869 15.4964H58.5311C59.2387 15.4961 59.7718 16.0572 59.7157 16.7433Z" fill="#DD512A"/>
</svg>
