<svg width="71" height="77" viewBox="0 0 71 77" fill="none" xmlns="http://www.w3.org/2000/svg">
<g clip-path="url(#clip0_8_890)">
<path d="M70.9835 0H0.113647V76.8857H70.9835V0Z" fill="#F7DF1E"/>
<path d="M47.7202 60.0673C49.1477 62.596 51.005 64.4547 54.2897 64.4547C57.0491 64.4547 58.8119 62.9584 58.8119 60.8911C58.8119 58.4136 57.0008 57.5362 53.9635 56.0949L52.2986 55.3199C47.493 53.0988 44.3004 50.3162 44.3004 44.4339C44.3004 39.0152 48.106 34.8903 54.0535 34.8903C58.2877 34.8903 61.3317 36.489 63.5253 40.675L58.3394 44.2874C57.1976 42.0663 55.9658 41.1912 54.0535 41.1912C52.1029 41.1912 50.8666 42.5337 50.8666 44.2874C50.8666 46.4549 52.104 47.3323 54.9613 48.6748L56.6262 49.4485C62.2845 52.0809 65.4793 54.7646 65.4793 60.7983C65.4793 67.3031 60.7692 70.8667 54.4438 70.8667C48.259 70.8667 44.2633 67.6692 42.3082 63.4783L47.7202 60.0673ZM24.1948 60.6934C25.241 62.707 26.1926 64.4095 28.4807 64.4095C30.6687 64.4095 32.049 63.4808 32.049 59.8696V35.3028H38.7085V59.9672C38.7085 67.4483 34.6655 70.8533 28.7642 70.8533C23.4321 70.8533 20.3442 67.8596 18.7738 64.2539L24.1948 60.6934Z" fill="#F3F2F0"/>
</g>
<defs>
<clipPath id="clip0_8_890">
<rect width="70.8698" height="76.8857" fill="white" transform="translate(0.113647)"/>
</clipPath>
</defs>
</svg>
