<svg width="105" height="55" viewBox="0 0 105 55" fill="none" xmlns="http://www.w3.org/2000/svg">
<g clip-path="url(#clip0_8_862)">
<path d="M52.537 54.837C81.4243 54.837 104.842 42.5613 104.842 27.4185C104.842 12.2757 81.4243 0 52.537 0C23.6498 0 0.232056 12.2757 0.232056 27.4185C0.232056 42.5613 23.6498 54.837 52.537 54.837Z" fill="url(#paint0_radial_8_862)"/>
<path d="M52.5371 52.7999C80.2959 52.7999 102.799 41.4363 102.799 27.4185C102.799 13.4007 80.2959 2.03699 52.5371 2.03699C24.7783 2.03699 2.27527 13.4007 2.27527 27.4185C2.27527 41.4363 24.7783 52.7999 52.5371 52.7999Z" fill="#6181B6"/>
<path d="M62.712 35.6482L65.2047 22.8556C65.7768 19.963 65.2864 17.8037 63.8154 16.4593C62.3851 15.1556 59.9333 14.5037 56.3374 14.5037H52.0059L53.2318 8.14819C53.2726 7.90374 53.2318 7.6593 53.0683 7.45559C52.9049 7.25189 52.7006 7.17041 52.4554 7.17041H46.4893C46.0807 7.17041 45.7538 7.4556 45.6721 7.82226L43.016 21.3889C42.7708 19.8408 42.1987 18.5371 41.218 17.4778C39.4609 15.4815 36.723 14.463 33.0045 14.463H21.5219C21.1132 14.463 20.7863 14.7482 20.7046 15.1149L15.3515 42.6556C15.3107 42.9 15.3515 43.1445 15.515 43.3482C15.6784 43.5519 15.8828 43.6334 16.1279 43.6334H22.1348C22.5435 43.6334 22.8704 43.3482 22.9521 42.9815L24.2597 36.3408H28.7138C31.043 36.3408 33.0453 36.0963 34.5573 35.6075C36.1509 35.0778 37.5811 34.2223 38.8479 33.0408C39.8695 32.1037 40.7276 31.0445 41.3814 29.9037L40.319 35.4037C40.2781 35.6482 40.319 35.8926 40.4824 36.0963C40.6459 36.3 40.8502 36.3815 41.0954 36.3815H47.0614C47.4701 36.3815 47.797 36.0963 47.8787 35.7297L50.8208 20.6556H54.9072C56.6643 20.6556 57.1546 20.9815 57.3181 21.1445C57.4407 21.2667 57.6859 21.7556 57.3998 23.263L55.0298 35.4445C54.9889 35.6889 55.0298 35.9334 55.1932 36.1371C55.3567 36.3408 55.561 36.4223 55.8062 36.4223H61.9356C62.3034 36.3 62.6303 36.0149 62.712 35.6482ZM35.0885 25.0556C34.7207 26.9704 34.026 28.3556 33.0045 29.1297C31.9829 29.9037 30.3075 30.3112 28.1009 30.3112H25.4448L27.3653 20.4519H30.7978C33.3314 20.4519 34.3529 20.9815 34.7616 21.4297C35.2928 22.0815 35.4154 23.3445 35.0885 25.0556Z" fill="#F3F2F0"/>
<path d="M88.2107 17.4778C86.4536 15.4815 83.7158 14.463 79.9972 14.463H68.4329C68.0243 14.463 67.6974 14.7482 67.6156 15.1149L62.2625 42.6149C62.2217 42.8593 62.2625 43.1038 62.426 43.3075C62.5894 43.5112 62.7938 43.5926 63.0389 43.5926H69.0458C69.4545 43.5926 69.7814 43.3075 69.8631 42.9408L71.1707 36.3H75.6248C77.954 36.3 79.9563 36.0556 81.4683 35.5667C83.062 35.0371 84.4922 34.1815 85.7589 33C86.8214 32.0223 87.7204 30.9223 88.3742 29.7408C89.028 28.5593 89.5183 27.2556 89.8044 25.8297C90.4991 22.2852 89.9678 19.5149 88.2107 17.4778ZM81.9586 25.0556C81.5909 26.9704 80.8962 28.3556 79.8746 29.1297C78.853 29.9038 77.1776 30.3112 74.971 30.3112H72.3149L74.2355 20.4519H77.668C80.2015 20.4519 81.2231 20.9815 81.6317 21.4297C82.2038 22.0815 82.3264 23.3445 81.9586 25.0556Z" fill="#F3F2F0"/>
<path d="M30.7978 19.6371C33.0861 19.6371 34.598 20.0445 35.3744 20.9001C36.1508 21.7556 36.3143 23.1815 35.9057 25.2186C35.497 27.3371 34.6798 28.8852 33.4947 29.7815C32.3097 30.6778 30.5117 31.126 28.1008 31.126H24.4639L26.7114 19.6371H30.7978ZM16.1687 42.7778H22.1756L23.6058 35.4852H28.7546C31.0429 35.4852 32.8818 35.2408 34.3529 34.7519C35.8239 34.263 37.1316 33.4889 38.3575 32.3482C39.379 31.4112 40.1963 30.3926 40.8093 29.2926C41.4222 28.1926 41.8717 26.9704 42.1169 25.626C42.7707 22.3667 42.2803 19.8408 40.6867 18.0075C39.093 16.1741 36.5595 15.2778 33.0861 15.2778H21.5218L16.1687 42.7778Z" fill="#F3F2F0"/>
<path d="M46.5301 7.98523H52.4961L51.0659 15.2778H56.3781C59.7289 15.2778 62.0173 15.8482 63.284 17.0297C64.5508 18.2112 64.9186 20.0852 64.4282 22.6926L61.9355 35.4852H55.8878L58.2579 23.3037C58.5439 21.9186 58.4213 20.9815 57.9718 20.4926C57.5223 20.0037 56.5007 19.7186 54.9888 19.7186H50.2078L47.143 35.4852H41.177L46.5301 7.98523Z" fill="#F3F2F0"/>
<path d="M77.6679 19.6371C79.9562 19.6371 81.4682 20.0445 82.2446 20.9001C83.021 21.7556 83.1844 23.1815 82.7758 25.2186C82.3671 27.3371 81.5499 28.8852 80.3648 29.7815C79.1798 30.6778 77.3818 31.126 74.9709 31.126H71.3341L73.5815 19.6371H77.6679ZM63.0388 42.7778H69.0457L70.4759 35.4852H75.6247C77.9131 35.4852 79.7519 35.2408 81.223 34.7519C82.6941 34.263 84.0017 33.4889 85.2276 32.3482C86.2492 31.4112 87.0664 30.3926 87.6794 29.2926C88.2923 28.1926 88.7418 26.9704 88.987 25.626C89.6408 22.3667 89.1504 19.8408 87.5568 18.0075C85.9631 16.1741 83.4296 15.2778 79.9562 15.2778H68.3919L63.0388 42.7778Z" fill="#F3F2F0"/>
</g>
<defs>
<radialGradient id="paint0_radial_8_862" cx="0" cy="0" r="1" gradientUnits="userSpaceOnUse" gradientTransform="translate(31.6362 9.6424) scale(68.6892 68.4832)">
<stop stop-color="white"/>
<stop offset="0.5" stop-color="#4C6B97"/>
<stop offset="1" stop-color="#231F20"/>
</radialGradient>
<clipPath id="clip0_8_862">
<rect width="104.61" height="55" fill="white" transform="translate(0.232056)"/>
</clipPath>
</defs>
</svg>
