<svg width="74" height="74" viewBox="0 0 74 74" fill="none" xmlns="http://www.w3.org/2000/svg">
<g clip-path="url(#clip0_8_780)">
<path fill-rule="evenodd" clip-rule="evenodd" d="M36.9192 5.18357C45.1875 5.18357 52.7159 8.36386 58.3593 13.5708C55.5933 13.4963 52.833 15.1466 52.7188 18.9257C52.4861 26.5656 61.8203 28.193 56.7907 43.5602L52.6303 56.2713L41.2994 22.7693C41.1239 22.2507 41.328 21.9556 41.9631 21.9556H45.1665C45.333 21.9556 45.4691 21.8129 45.4691 21.6382V19.7337C45.4691 19.5591 45.3327 19.4092 45.1665 19.4164C39.1 19.6827 33.0692 19.6845 27.0748 19.4164C26.9078 19.4092 26.7722 19.5596 26.7722 19.7344V21.6389C26.7722 21.8134 26.9084 21.9563 27.0748 21.9563H30.2958C31.0123 21.9563 31.2129 22.1959 31.3818 22.6595L36.0375 35.4394L29.034 56.6658L17.5218 22.6308C17.3791 22.2039 17.5518 21.9561 17.9614 21.9561H21.6316C21.798 21.9561 21.9341 21.8134 21.9341 21.6387V19.7342C21.9341 19.5596 21.7975 19.4081 21.6316 19.4169C17.7809 19.6222 13.9155 19.6635 10.3148 19.7006C15.9651 10.9642 25.769 5.18294 36.9172 5.18294L36.9172 5.18285L36.9192 5.18357ZM64.7961 21.8486C67.2317 26.3527 68.6147 31.5133 68.6147 36.9966C68.6147 49.0308 61.9531 59.505 52.1315 64.9115L62.0166 36.8089C63.548 32.4596 64.9695 26.5818 64.7954 21.8486H64.7954H64.7961ZM47.5308 66.9802C44.2124 68.1649 40.6414 68.811 36.9192 68.811C33.7122 68.811 30.6179 68.3311 27.7006 67.4429L37.4651 39.356L47.5306 66.9816L47.5308 66.9802ZM23.3561 65.7568C12.6374 60.6544 5.22296 49.6934 5.22296 36.998C5.22296 32.2917 6.24294 27.8241 8.07102 23.8046L23.3568 65.7573L23.3569 65.7573L23.3561 65.7568ZM36.9182 2.1981C56.0618 2.1981 71.5874 17.7816 71.5874 36.9966C71.5874 56.2116 56.0618 71.795 36.9182 71.795C17.7746 71.795 2.24901 56.2116 2.24901 36.9966C2.24901 17.7816 17.7746 2.1981 36.9182 2.1981ZM36.9182 -0.00146484C57.2721 -0.00146484 73.7796 16.5676 73.7796 36.9974C73.7796 57.4272 57.2721 73.9963 36.9182 73.9963C16.5643 73.9963 0.0567627 57.4272 0.0567627 36.9974C0.0567627 16.5676 16.5643 -0.00146484 36.9182 -0.00146484Z" fill="#3AC8E8"/>
</g>
<defs>
<clipPath id="clip0_8_780">
<rect width="73.7251" height="74" fill="white" transform="translate(0.0587158)"/>
</clipPath>
</defs>
</svg>
